<svg width="179" height="179" viewBox="0 0 179 179" fill="none" xmlns="http://www.w3.org/2000/svg">
<g clip-path="url(#clip0_330_261)">
<path d="M128.358 -8.90668e-05C124.293 0.0222859 120.273 0.999328 118.99 2.73712C118.17 3.96774 117.558 11.6573 118.17 15.5505C118.17 15.5505 118.408 18.1237 118.841 20.13L118.692 21.4874C118.517 23.0013 118.275 24.5068 117.968 25.9997C117.894 26.4173 116.425 26.7082 114.799 27.1333L113.769 26.8201C112.024 26.3055 110.898 27.7375 109.16 28.7592C108.645 28.4609 106.393 27.4317 105.162 28.1477C103.932 28.8637 103.111 29.5871 101.881 30.0943C101.269 29.7885 99.6284 29.7885 98.3008 30.3031C96.9642 30.7257 95.7352 31.4331 94.6984 32.3765C77.4398 36.7024 58.8015 44.5709 57.3172 45.3615C49.7321 49.2547 37.3364 55.915 31.7053 60.5243C22.0766 68.5122 16.3412 77.8425 14.0813 84.7042C11.2098 93.2067 12.0302 98.3306 14.7973 95.0489C17.0199 92.3192 26.9693 84.2045 33.2567 80.1397L33.2417 80.1919C34.2785 79.4534 35.3764 78.8046 36.5234 78.2527L38.2612 77.3279L42.0277 74.9189C46.5176 79.0359 48.0167 85.6067 49.0161 94.5343C50.657 108.265 61.7251 114.62 74.628 114.821C88.053 115.03 92.8711 117.797 97.8906 124.554C99.0317 126.053 100.262 126.844 101.396 127.299C100.889 128.259 100.489 129.272 100.203 130.319C99.6433 131.587 99.2704 133.154 99.0317 134.854C98.9105 135.018 98.8335 135.211 98.808 135.413C98.3008 139.411 98.3977 148.838 98.3008 153.858C98.2038 158.877 98.092 159.601 97.6817 160.317C97.2715 161.137 96.8613 161.644 96.3542 163.8C95.8395 166.052 94.9147 166.664 93.9973 168.506C92.4609 171.378 92.7667 174.547 94.3031 175.987C95.8395 177.426 100.046 179.574 105.774 178.858C111.517 178.142 112.337 177.732 111.413 172.198C111.308 171.377 109.981 167.686 110.391 166.254C111.002 164.717 109.675 162.055 109.981 161.95C110.286 161.846 110.697 159.802 110.697 158.773C110.697 157.751 110.592 152.836 111.718 150.27C112.181 149.226 113.158 146.84 114.15 144.416C117.446 139.023 117.573 135.756 117.73 133.899C117.953 132.393 118.073 130.469 117.864 128.35C118.274 127.731 120.019 126.299 120.221 123.532C120.221 123.532 125.024 121.019 128.44 114.97C129.633 119.124 130.752 121.757 130.573 124.457C126.851 127.366 125.471 129.514 124.905 131.61C124.547 131.46 124.338 131.334 124.084 131.311H123.883C123.611 131.347 123.345 131.419 123.092 131.528C121.66 132.035 122.786 141.358 124.323 145.154C125.859 148.95 126.68 151.195 127.291 155.297C127.91 159.392 125.859 164.411 125.039 166.664C125.039 166.664 123.704 170.661 126.777 172.809C129.447 174.659 139.486 174.152 143.991 174.152C148.503 174.152 155.26 175.785 159.564 174.965C164.896 174.04 165.709 170.863 162.539 169.222C159.362 167.581 154.544 166.768 148.294 162.263C146.653 161.13 144.401 160.108 144.095 159.191C143.789 158.266 143.789 152.94 143.894 148.324C143.991 143.715 145.534 137.778 146.042 134.6C146.519 131.632 145.475 131.707 144.087 131.983C144.326 130.886 144.58 129.805 144.811 128.656C147.377 123.942 146.25 119.535 146.25 119.535C152.366 111.748 149.234 95.1459 147.891 89.3433C152.665 91.6032 155.051 90.7455 155.051 90.7455C155.812 90.3352 156.483 89.746 157.095 89.0748C159.608 86.3749 160.899 82.243 160.899 82.243V82.0416C166.731 76.2017 169.483 67.6022 162.838 61.9637C163.381 60.3831 163.516 58.6909 163.231 57.044C162.945 55.3972 162.248 53.8493 161.204 52.5439C162.107 50.3657 162.326 47.9649 161.833 45.6594C161.34 43.3539 160.159 41.2525 158.445 39.6335C157.399 38.6537 156.162 37.8997 154.813 37.4184C153.321 35.2182 152.985 34.3082 150.546 34.8154C149.428 33.5848 149.219 32.6674 146.862 33.4878C146.862 33.4878 146.146 31.7426 144.811 31.3324C144.69 31.2843 144.565 31.2469 144.438 31.2205C142.186 29.6542 140.142 29.617 138.68 30.0272C138.203 29.6692 138.225 29.1023 138.158 27.1333C138.098 25.6417 138.016 23.5086 137.927 21.5843C138.128 19.138 138.688 14.3199 138.867 11.8661C139.075 9.10654 139.18 4.79562 137.949 2.95341C136.51 0.894911 132.415 -0.0224641 128.358 -8.90668e-05ZM128.321 2.53574C133.541 2.53574 135.794 4.17658 136.107 5.09395C136.204 5.30279 136.719 8.78583 136.405 11.0382C136.308 11.8587 136.204 14.8345 136.003 16.1621C135.898 17.4972 135.488 19.0336 135.078 21.1816C134.772 22.9268 133.34 24.8735 132.214 25.1792C130.267 25.6939 126.68 25.5895 124.629 25.1792C124.114 25.0748 123.704 24.769 123.197 24.4632C122.07 22.6136 121.451 21.1816 121.25 18.9292C121.041 16.7737 120.631 15.8563 120.534 14.2155C120.43 11.7542 120.43 10.1134 120.43 10.1134C120.534 8.78583 120.944 5.50416 120.944 5.19837C121.041 4.28099 122.682 2.53574 128.321 2.53574ZM119.87 22.6882C120.959 23.7995 122.115 24.9704 123.092 25.7908C124.017 26.6112 126.27 26.5068 128.313 26.5068C130.163 26.5068 131.804 26.7157 132.52 26.3055C133.668 25.7312 135.167 24.5527 136.42 23.3669C136.502 24.5005 136.584 25.6342 136.614 26.6112C136.689 28.8115 136.294 30.1017 136.793 30.8625C136.182 31.2205 135.495 31.6456 134.787 32.026C133.661 32.6227 132.505 33.0403 131.781 32.8837H131.766C130.208 32.6227 124.823 31.2802 121.839 29.8482C120.594 27.9165 119.341 26.8797 119.408 26.5068C119.609 25.485 119.706 24.6646 119.811 23.337L119.87 22.6882ZM113.508 27.8344L113.769 27.8419C116.932 28.1104 118.617 28.9755 119.796 29.96L120.363 30.1838L120.422 29.9824C120.775 30.2062 121.178 30.4249 121.63 30.6387C125.136 31.8246 129.864 32.9359 131.393 33.2715C133.236 33.6817 136.204 31.8395 137.643 30.9147C140.202 29.2739 143.483 30.6164 145.02 32.3542C146.042 33.4729 146.452 34.1964 146.452 34.5022C148.809 33.6817 149.114 34.808 150.241 36.0386C153.112 34.7035 153.313 36.3444 153.522 37.0604C152.612 37.0604 151.3 37.1648 149.51 37.3587L149.42 37.2692C148.346 36.1281 146.422 35.1137 144.953 34.4052C144.304 34.174 143.61 34.0397 143.073 33.6817C142.253 33.2715 141.432 32.66 140.202 32.7644C135.078 33.376 134.056 35.1137 129.648 34.092C125.345 33.0925 124.151 32.1975 119.706 32.4437L119.714 32.6376C118.931 32.7569 118.222 32.8613 118.073 32.8613C116.536 32.9508 112.688 33.361 109.473 32.1155C109.091 31.8912 108.689 31.7015 108.273 31.5487L108.235 31.5337H108.228C106.885 31.0017 105.319 30.7233 103.529 30.6984H103.335C104.961 29.878 105.99 28.7667 107.512 29.0725C109.153 29.3783 110.793 30.7133 111.718 31.7351C111.416 30.9416 110.965 30.2127 110.391 29.5871C111.345 28.9159 112.218 27.8717 113.508 27.8344ZM105.304 31.8992C106.423 31.9141 107.392 32.0931 108.414 32.4437C108.549 32.5108 108.668 32.5779 108.854 32.66C111.002 33.6817 114.896 33.8831 118.177 33.6817C119.601 33.6209 121.011 33.3829 122.376 32.9732C124.778 33.1522 126.21 33.7936 129.663 34.5842C131.975 35.1063 133.407 34.9198 134.847 34.532C136.286 34.1367 137.726 33.5624 140.239 33.2641C140.708 33.2072 141.184 33.2401 141.641 33.361C141.925 33.5102 142.198 33.6619 142.462 33.816C142.924 34.1815 144.058 34.8229 145.02 35.2256C146.243 35.7328 149.42 37.8882 149.83 38.3954C149.905 38.4921 150.002 38.5689 150.114 38.6192C151.919 40.9611 153.149 44.2502 153.067 47.6437C152.62 51.0746 149.89 49.2398 148.398 48.5387C145.326 47.2112 142.253 46.2863 138.665 46.2863C135.085 46.2863 130.469 46.5921 126.471 47.6214C120.944 49.1578 119.303 49.0534 116.85 47.8227C114.388 46.4952 110.085 43.2135 110.085 43.2135V43.2881C110.035 43.2284 110 43.2036 109.981 43.2135C109.667 43.7281 108.951 45.0557 108.541 45.6747C108.34 49.568 105.983 55.7137 101.575 57.2501C101.008 57.4589 100.401 57.5397 99.7993 57.4869C99.1971 57.434 98.6141 57.2487 98.092 56.9443C96.8142 56.0944 95.4364 55.4055 93.9899 54.8932C97.5773 57.7572 99.427 59.9127 101.068 63.7015C102.366 66.9086 104.163 71.2867 108.541 75.978C111.248 75.9481 113.948 76.7014 115.716 78.5585C116.738 79.5803 118.379 80.714 118.177 81.7358C118.177 82.0416 117.558 82.862 117.051 83.481C116.564 84.0536 116.049 84.6012 115.507 85.1219C115.104 85.4202 113.665 86.5539 113.359 86.7627C113.053 86.9715 112.643 87.4712 112.337 87.5757C111.308 88.0903 110.182 87.6801 109.16 87.1655C108.138 86.6508 109.361 86.5539 108.235 85.7335C105.699 83.9435 104.2 82.6681 104.849 79.5281C97.898 73.6062 85.7484 70.1306 83.138 63.806C81.4972 59.7039 81.2883 57.6603 82.8247 55.915C87.337 50.7912 85.5918 45.8761 88.9779 43.7281C92.1477 41.6771 94.8177 44.0265 96.3542 46.1894C95.4293 42.3931 92.2521 41.4682 92.2521 41.1625C92.2521 36.4488 96.7644 33.1746 101.277 32.3542C102.903 32.0484 104.178 31.8843 105.304 31.8992ZM91.5286 35.882C90.4845 37.3438 89.8057 39.1263 89.6939 41.2594C88.1575 41.4682 84.6744 41.6696 82.9292 48.0241C82.5474 49.6133 82.0129 51.1619 81.3331 52.6483C80.5649 52.9839 59.3608 62.1502 42.3335 71.6074L42.2589 71.5552C39.8722 72.8977 37.5875 74.2551 35.4047 75.6274L34.4724 76.2017L34.4649 76.2241C25.9922 81.6165 19.2499 87.0387 14.7973 91.9761C17.8701 71.9952 33.652 61.5461 41.1252 56.9368C59.1744 45.8314 75.6498 40.342 91.5286 35.882ZM151.471 38.291C153.41 38.2612 155.469 38.7385 157.11 40.342C161.51 44.6455 160.28 49.3592 158.952 52.6334C160.071 53.9684 162.741 57.7572 161.1 62.2621C160.802 63.2913 158.542 63.2913 156.901 65.954C161.003 63.5971 163.561 64.2162 164.486 67.1846C165.918 71.7938 162.741 77.3279 159.974 80.4007C159.974 80.2963 159.869 80.1919 159.869 80.095C159.459 81.6314 158.952 84.5998 155.879 87.8815C154.343 89.5223 153.112 89.3135 151.367 88.9032C149.763 88.5005 148.965 87.8442 147.317 86.8447C147.048 85.3009 146.556 83.2498 146.556 82.4443C146.556 82.1162 146.526 81.3927 146.482 80.632C146.715 80.3635 146.979 80.08 147.272 79.7817C147.272 79.7817 148.6 77.9395 150.554 78.0439C152.493 78.1483 154.544 77.7381 155.059 77.2235C155.059 73.6435 150.957 73.5391 152.396 67.386C152.493 67.0876 153.008 66.5655 154.648 66.3642C152.187 65.8495 151.068 65.7451 149.323 64.1117L149.226 64.0148C150.047 62.1278 150.897 60.6063 151.471 59.5025C152.911 56.631 152.083 53.148 152.083 53.148C153.627 52.6334 154.954 51.813 155.163 51.3058C156.677 46.2863 153.94 41.4459 150.651 38.3283C150.919 38.3034 151.193 38.296 151.471 38.291ZM110.749 45.19C110.818 45.3093 110.903 45.4336 111.002 45.5629C112.337 47.2037 115.306 49.2547 119.303 50.5823C121.243 51.2014 122.786 50.7912 124.524 50.381C132.9 48.3075 141.708 47.8004 149.361 51.537C149.794 54.2494 149.386 57.0297 148.19 59.5025C146.459 62.9706 144.214 67.468 144.61 76.0227C142.775 76.3509 134.026 77.0967 129.753 76.2987C125.867 75.5752 119.192 72.383 117.67 71.1524C117.23 69.0652 116.919 66.953 116.738 64.8277C118.03 64.2158 119.182 63.3451 120.124 62.2695C117.051 62.7767 115.82 62.5679 113.971 61.5461C112.218 60.5765 109.182 57.5708 107.482 55.4302C109.19 53.2673 110.413 50.284 109.981 46.2863C110.254 45.9134 110.508 45.548 110.741 45.19H110.749ZM78.0812 57.1084C77.41 58.9953 78.7749 61.9861 79.7519 64.2162C83.5407 73.0095 95.1907 73.8374 103.074 80.4753C102.944 81.4629 103.099 82.467 103.522 83.3692C104.141 84.5998 106.289 86.4495 106.289 86.4495C105.878 86.8522 106.087 87.6726 106.087 87.6726C107.609 89.2911 109.846 89.485 110.167 89.5074C106.923 98.8154 104.081 109.093 106.803 120.049C105.468 121.869 104.059 123.368 102.843 125.031C101.517 124.642 100.354 123.83 99.5314 122.719C95.1235 116.365 88.6646 112.158 76.9849 112.472C59.4652 112.882 52.4992 105.707 51.1716 91.9761C50.4705 84.7117 48.509 77.6412 44.5486 73.4869C55.8554 67.2293 71.5999 59.1967 76.5821 57.6528C77.0856 57.489 77.5906 57.3074 78.0812 57.1084ZM104.156 58.4509C106.997 61.7475 110.085 63.8731 113.053 65.7526C113.665 68.3108 113.874 70.056 114.485 73.4347H114.18L113.978 75.7318C112.471 75.2893 110.921 75.0068 109.354 74.889L109.361 74.8667C102.701 66.9832 104.141 63.9029 101.471 59.8083C102.194 59.5547 103.149 59.1072 104.156 58.4509ZM148.242 66.5506C148.809 67.0503 149.569 67.4456 150.651 67.6992C148.212 72.7709 153.112 74.5012 153.41 76.4255C152.344 77.0445 150.673 76.7014 148.913 76.6119C148.055 76.5672 147.205 77.0967 146.519 77.7083L146.758 74.9711C146.802 71.764 147.429 68.9373 148.249 66.5432L148.242 66.5506ZM117.767 74.1879C117.946 74.449 119.095 75.165 125.24 76.8133C132.893 78.8643 142.566 77.7083 144.259 77.4845C144.23 77.7114 144.175 77.9341 144.095 78.1483C144.095 80.7065 144.505 82.5487 144.811 84.1896C145.206 86.4867 145.781 88.1649 146.027 89.7087L146.086 89.6565C147.832 99.8521 150.27 113.023 144.095 119.848C144.401 121.28 144.61 123.331 144.199 125.688C143.948 127.05 143.571 128.386 143.073 129.678C142.735 130.53 142.466 131.408 142.268 132.303C134.063 133.362 129.178 132.714 126.903 132.191C127.821 129.402 129.939 126.568 133.437 126.71C133.273 119.915 131.468 117.588 129.626 112.606C132.572 106.02 131.856 100.188 134.257 91.3645C132.415 93.3111 130.976 100.382 129.753 104.685C128.216 110.935 125.554 116.976 118.379 121.794C118.379 123.435 117.864 124.658 117.252 125.479C115.917 127.426 114.18 128.045 113.568 131.222C114.388 130.193 115.507 129.275 115.507 129.581C115.479 130.808 115.416 132.034 115.321 133.258L115.41 133.265C114.18 141.052 111.517 144.639 109.876 149.04C108.75 152.217 109.16 159.183 108.75 159.288C105.878 159.907 101.478 158.78 100.247 158.169C101.456 149.666 100.389 141.179 103.499 131.319L103.387 131.274C104.581 127.142 106.952 124.726 110.391 120.355C109.19 116.477 106.423 108.123 112.375 89.1643C112.618 89.0648 112.879 88.943 113.158 88.7988L114.694 87.777C114.993 87.5682 115.41 87.2624 115.716 87.061C116.231 86.7478 118.483 84.294 118.789 83.9882C119.505 83.2647 120.019 83.0634 120.221 82.243C120.631 80.7065 118.379 79.1701 117.461 78.1409C117.337 78.0066 117.23 77.8823 117.141 77.768C117.24 77.4746 117.344 77.1912 117.454 76.9177C117.528 75.9854 117.663 74.986 117.767 74.1879ZM124.353 133.422C124.726 133.437 125.65 134.332 129.954 134.6C134.876 134.899 141.432 133.981 143.17 133.571C144.908 133.161 143.894 134.392 143.685 135.622L143.491 136.883C140.515 137.882 135.973 138.285 132.93 138.389C129.999 138.486 126.62 138.3 124.271 137.569C123.913 135.63 123.801 134.063 124.219 133.467C124.235 133.449 124.257 133.435 124.28 133.427C124.303 133.42 124.328 133.418 124.353 133.422ZM143.043 139.732C142.894 140.739 142.782 141.395 142.611 142.506C139.717 143.401 135.988 143.416 133.139 143.513C130.611 143.631 128.078 143.456 125.591 142.991L125.345 142.178L124.86 140.299C126.195 140.552 128.813 140.888 133.437 140.948C136.683 141.055 139.926 140.645 143.043 139.732ZM142.253 144.841C141.738 148.122 141.843 158.161 142.148 160.928C142.253 161.749 149.219 164.822 151.673 166.671C152.471 167.305 153.604 167.842 154.82 168.327C155.133 168.64 155.685 169.11 156.289 169.841C157.498 171.43 156.677 173.093 155.282 173.764C153.313 173.712 151.046 173.376 147.272 172.809C142.089 172.034 138.852 172.056 134.369 172.019V171.997C133.236 169.946 133.952 166.567 133.952 166.567C131.873 166.506 129.826 166.05 127.918 165.224L128.007 165.03C129.753 161.45 129.648 160.623 129.134 154.477C128.783 150.166 127.672 147.891 126.635 145.564C127.895 145.684 129.685 145.825 133.027 145.87C136.135 145.946 139.238 145.6 142.253 144.841ZM102.679 160.384C104.491 160.384 107.154 160.623 107.721 161.13V161.234C107.825 162.465 108.951 164.21 108.541 165.127C108.34 165.642 107.825 164.822 107.109 164.62C107.415 166.559 108.235 170.147 109.466 172.914C110.286 174.764 109.772 176.091 107.005 176.606C104.543 176.71 101.374 176.606 98.711 175.987C95.6382 174.45 94.6089 173.63 95.228 170.766C95.7351 168.715 98.9124 166.366 101.679 164.516C100.143 164.62 98.5022 165.746 98.711 164.411C99.1212 161.749 100.247 161.95 100.963 160.623C100.814 160.473 101.59 160.384 102.679 160.384Z" fill="black"/>
</g>
<defs>
<clipPath id="clip0_330_261">
<rect width="179" height="179" fill="white"/>
</clipPath>
</defs>
</svg>
