<svg width="120" height="120" viewBox="0 0 120 120" fill="none" xmlns="http://www.w3.org/2000/svg">
<path d="M94.7475 57.3974C94.7475 51.0374 92.46 46.6349 90.5025 43.2074L89.9025 42.2324C87.525 38.4074 85.4475 35.0474 85.4475 31.1324C85.4475 26.4074 89.0325 21.9974 94.0875 21.9974C94.2375 21.9974 94.3825 22.0049 94.5225 22.0199L94.755 22.0424C85.2755 13.3372 72.8702 8.5132 60 8.52737C51.4706 8.52635 43.0748 10.6458 35.568 14.6952C28.0611 18.7445 21.6787 24.5965 16.995 31.7249C18.195 31.7624 19.3425 31.7924 20.31 31.7924C25.6875 31.7924 34.02 31.1399 34.02 31.1399C36.795 30.9749 37.125 35.0474 34.35 35.3774C34.35 35.3774 31.5675 35.7074 28.4625 35.8649L47.2125 91.6199L58.4625 57.8249L50.4375 35.8574C47.67 35.6924 45.045 35.3699 45.045 35.3699C42.27 35.2049 42.6 30.9599 45.3675 31.1249C45.3675 31.1249 53.8725 31.7774 58.9275 31.7774C64.3125 31.7774 72.6525 31.1249 72.6525 31.1249C75.4275 30.9599 75.75 35.0399 72.975 35.3699C72.975 35.3699 70.185 35.6924 67.0875 35.8574L85.6875 91.1849L90.8175 74.0324L91.2225 72.7349C93.2475 66.2849 94.74 61.5224 94.74 57.3899L94.7475 57.3974ZM8.5275 59.9999C8.52345 69.6662 11.2426 79.1382 16.3734 87.3304C21.5042 95.5227 28.839 102.104 37.5375 106.32L12.975 39.0449C10.0257 45.6362 8.50977 52.7788 8.5275 59.9999Z" fill="black"/>
<path d="M45.4575 109.373L60.9075 64.5002L76.725 107.85C76.825 108.1 76.9475 108.335 77.0925 108.555C66.8962 112.15 55.8259 112.436 45.4575 109.373ZM105.158 35.3027C105.388 36.9427 105.505 38.7077 105.51 40.5977C105.51 45.8177 104.535 51.6902 101.595 59.0327L85.875 104.483C97.4753 97.7429 105.984 86.7385 109.588 73.8153C113.191 60.8922 111.604 47.0726 105.165 35.3027H105.158Z" fill="black"/>
<path fill-rule="evenodd" clip-rule="evenodd" d="M0 60C0 26.9175 26.9175 0 60 0C93.0825 0 120 26.9175 120 60C120 93.0825 93.075 120 60 120C26.925 120 0 93.0825 0 60ZM2.7525 60C2.7525 91.5675 28.4325 117.248 60 117.248C91.5675 117.248 117.24 91.5675 117.24 60C117.24 28.425 91.56 2.7525 60 2.7525C28.425 2.7525 2.7525 28.425 2.7525 60Z" fill="black"/>
</svg>
